<mxfile host="app.diagrams.net" modified="2023-11-21T02:10:06.762Z" agent="Mozilla/5.0 (Windows NT 10.0; Win64; x64) AppleWebKit/537.36 (KHTML, like Gecko) Chrome/115.0.0.0 Safari/537.36" etag="gbYHC0n_kyyVmHk-bE2x" version="22.1.3" type="github">
  <diagram name="Trang-1" id="4NF1SX2Zl0v4paSwMD6_">
    <mxGraphModel dx="1195" dy="658" grid="1" gridSize="10" guides="1" tooltips="1" connect="1" arrows="1" fold="1" page="1" pageScale="1" pageWidth="1169" pageHeight="827" math="0" shadow="0">
      <root>
        <mxCell id="0" />
        <mxCell id="1" parent="0" />
        <mxCell id="18ZbggmuUgCVSDo4UCOA-19" value="vCNFM" style="shape=umlFrame;whiteSpace=wrap;html=1;pointerEvents=0;width=80;height=40;" vertex="1" parent="1">
          <mxGeometry x="350" y="70" width="430" height="400" as="geometry" />
        </mxCell>
        <mxCell id="18ZbggmuUgCVSDo4UCOA-18" value="Web MANO" style="shape=umlFrame;whiteSpace=wrap;html=1;pointerEvents=0;width=80;height=40;" vertex="1" parent="1">
          <mxGeometry x="130" y="80" width="140" height="160" as="geometry" />
        </mxCell>
        <mxCell id="18ZbggmuUgCVSDo4UCOA-20" value="vMonitor" style="shape=umlFrame;whiteSpace=wrap;html=1;pointerEvents=0;width=80;height=40;" vertex="1" parent="1">
          <mxGeometry x="939" y="30" width="230" height="340" as="geometry" />
        </mxCell>
        <mxCell id="18ZbggmuUgCVSDo4UCOA-21" value="Khởi tạo UpdateVnfRequest" style="rounded=1;whiteSpace=wrap;html=1;" vertex="1" parent="1">
          <mxGeometry x="140" y="150" width="120" height="60" as="geometry" />
        </mxCell>
        <mxCell id="18ZbggmuUgCVSDo4UCOA-22" value="" style="endArrow=classic;html=1;rounded=0;" edge="1" parent="1" source="18ZbggmuUgCVSDo4UCOA-21" target="18ZbggmuUgCVSDo4UCOA-24">
          <mxGeometry width="50" height="50" relative="1" as="geometry">
            <mxPoint x="320" y="290" as="sourcePoint" />
            <mxPoint x="360" y="180" as="targetPoint" />
          </mxGeometry>
        </mxCell>
        <mxCell id="18ZbggmuUgCVSDo4UCOA-23" value="gửi request" style="text;html=1;align=center;verticalAlign=middle;resizable=0;points=[];autosize=1;strokeColor=none;fillColor=none;" vertex="1" parent="1">
          <mxGeometry x="270" y="150" width="80" height="30" as="geometry" />
        </mxCell>
        <mxCell id="18ZbggmuUgCVSDo4UCOA-24" value="monitoring?" style="rhombus;whiteSpace=wrap;html=1;" vertex="1" parent="1">
          <mxGeometry x="390" y="155" width="80" height="50" as="geometry" />
        </mxCell>
        <mxCell id="18ZbggmuUgCVSDo4UCOA-25" value="" style="endArrow=classic;html=1;rounded=0;" edge="1" parent="1" source="18ZbggmuUgCVSDo4UCOA-24" target="18ZbggmuUgCVSDo4UCOA-26">
          <mxGeometry width="50" height="50" relative="1" as="geometry">
            <mxPoint x="600" y="200" as="sourcePoint" />
            <mxPoint x="650" y="150" as="targetPoint" />
          </mxGeometry>
        </mxCell>
        <mxCell id="18ZbggmuUgCVSDo4UCOA-26" value="" style="rounded=1;whiteSpace=wrap;html=1;" vertex="1" parent="1">
          <mxGeometry x="370" y="250" width="120" height="60" as="geometry" />
        </mxCell>
        <mxCell id="18ZbggmuUgCVSDo4UCOA-27" value="Với mỗi monitoredUpdateInfo" style="shape=umlFrame;whiteSpace=wrap;html=1;pointerEvents=0;width=125;height=50;align=left;" vertex="1" parent="1">
          <mxGeometry x="155" y="330" width="430" height="400" as="geometry" />
        </mxCell>
      </root>
    </mxGraphModel>
  </diagram>
</mxfile>
